# xmcd CD database file
#
# Track frame offsets:
#	150
#	11641
#	30238
#	50550
#	72688
#	99113
#	123260
#	138151
#
# Disc length: 2088 seconds
#
# Revision: 0
# Processed by: cddbd v1.5.2PL0 Copyright (c) Steve Scherf et al.
# Submitted via: CDex 1.70beta2
#
DISCID=61082608
DTITLE=Various Artist - Concord Music Group Blues Playlist
DYEAR=2010
DGENRE=Blues
TTITLE0=Moreland and Arbuckle - Hate to See You Go
TTITLE1=Jonny Lang - One Person at a Time
TTITLE2=Robben Ford - Too Much
TTITLE3=Otis Taylor - Little Willie
TTITLE4=Six String Theory Featuring Joe Bonamassa - Give Me One Reason
TTITLE5=Playing For Change Featuring Keb’ Mo’ - Better Man
TTITLE6=Eric Bibb - Tell Riley
TTITLE7=Grandpa Elliott - Baby, What You Want Me to Do
EXTD=YEAR: 2010
EXTT0=
EXTT1=
EXTT2=
EXTT3=
EXTT4=
EXTT5=
EXTT6=
EXTT7=
PLAYORDER=
